<?xml version="1.0" encoding="UTF-8"?>
<svg width="100px" height="100px" viewBox="0 0 100 100" version="1.1" xmlns="http://www.w3.org/2000/svg" xmlns:xlink="http://www.w3.org/1999/xlink">
    <title>blog</title>
    <g id="Homepage" stroke="none" stroke-width="1" fill="none" fill-rule="evenodd">
        <g id="Hp" transform="translate(-866.000000, -5678.000000)">
            <g id="blog" transform="translate(866.000000, 5678.000000)">
                <rect id="Mask" fill="#694C9E" opacity="0.118572856" x="0" y="0" width="100" height="100" rx="10"></rect>
                <g id="doc" transform="translate(38.000000, 34.000000)" stroke="#1B243F" stroke-linecap="round" stroke-linejoin="round" stroke-width="2">
                    <polyline id="Shape" points="13 0 13 11 24 11"></polyline>
                    <path d="M13.9423699,-1 L25,11.1633931 L25,29.7 C25,30.8757527 24.5606554,31.9367907 23.8612604,32.7061252 C23.129,33.5116116 22.114583,34 21,34 L21,34 L3,34 C1.88541702,34 0.87099998,33.5116116 0.138739583,32.7061252 C-0.560655436,31.9367907 -1,30.8757527 -1,29.7 L-1,29.7 L-1,3.3 C-1,2.12424726 -0.560655436,1.06320935 0.138739583,0.293874828 C0.87099998,-0.511611609 1.88541702,-1 3,-1 L3,-1 L13.9423699,-1 Z" id="Shape"></path>
                </g>
            </g>
        </g>
    </g>
</svg>